# xmcd CD database file
#
# Track frame offsets:
#	150
#	29272
#	63325
#	86600
#	99657
#	119637
#	143050
#	165300
#	198457
#	216557
#	246412
#
# Disc length: 3617 seconds
#
# Revision: 0
# Processed by: cddbd v1.5.1PL0 Copyright (c) Steve Scherf et al.
# Submitted via: CDex 1.51
#
DISCID=a10e1f0b
DTITLE=Kenny G - Live World
DYEAR=1993
DGENRE=Jazz
TTITLE0=Silhouette
TTITLE1=Song Bird
TTITLE2=Going Home
TTITLE3=Brogan (Duet With Dadly More)
TTITLE4=Against Doctor's Orders
TTITLE5=Sade
TTITLE6=Don't Make Me Wait For Love
TTITLE7=Midnight Motion
TTITLE8=Uncle Al
TTITLE9=Tribeca
TTITLE10=Esther
EXTD=YEAR: 1993
EXTT0=
EXTT1=
EXTT2=
EXTT3=
EXTT4=
EXTT5=
EXTT6=
EXTT7=
EXTT8=
EXTT9=
EXTT10=
PLAYORDER=
